<svg xmlns="http://www.w3.org/2000/svg" width="27" height="21" viewBox="0 0 27 21">
  <metadata><?xpacket begin="﻿" id="W5M0MpCehiHzreSzNTczkc9d"?>
<x:xmpmeta xmlns:x="adobe:ns:meta/" x:xmptk="Adobe XMP Core 5.6-c138 79.159824, 2016/09/14-01:09:01        ">
   <rdf:RDF xmlns:rdf="http://www.w3.org/1999/02/22-rdf-syntax-ns#">
      <rdf:Description rdf:about=""/>
   </rdf:RDF>
</x:xmpmeta>





















<?xpacket end="w"?></metadata>
<defs>
    <style>
      .cls-1 {
        fill-rule: evenodd;
        fill:#8ed1b7;
      }
    </style>
  </defs>
  <path id="cart" class="cls-1" d="M926.8,1425.56a1.071,1.071,0,0,0-.848-0.42H909.8a0.42,0.42,0,1,0,0,.84h16.145a0.2,0.2,0,0,1,.144.07,0.193,0.193,0,0,1,.027.17l-2.422,7.56a0.728,0.728,0,0,1-.7.5H909a0.77,0.77,0,0,1-.751-0.58l-3.2-12.99a0.944,0.944,0,0,0-.93-0.71h-3.689a0.42,0.42,0,1,0,0,.84h3.689a0.087,0.087,0,0,1,.082.07l3.2,12.98a1.625,1.625,0,0,0,1.6,1.23h14a1.59,1.59,0,0,0,1.531-1.1l2.422-7.56A0.99,0.99,0,0,0,926.8,1425.56Zm-14.351,5.36a0.42,0.42,0,1,0,0,.84h9.076a0.42,0.42,0,1,0,0-.84h-9.076Zm10.419-2.1a0.429,0.429,0,0,0-.436-0.42H911.538a0.42,0.42,0,1,0,0,.84h10.891A0.429,0.429,0,0,0,922.865,1428.82Zm-10.236,7.98a2.1,2.1,0,1,0,2.177,2.1A2.141,2.141,0,0,0,912.629,1436.8Zm0,3.36a1.261,1.261,0,1,1,1.306-1.26A1.288,1.288,0,0,1,912.629,1440.16Zm6.968-3.36a2.1,2.1,0,1,0,2.177,2.1A2.141,2.141,0,0,0,919.6,1436.8Zm0,3.36a1.261,1.261,0,1,1,1.306-1.26A1.288,1.288,0,0,1,919.6,1440.16Z" transform="translate(-900 -1420)"/>
</svg>
